#!OML:ASF H:\LiuWeirdWalks\Patient Classification 1\Patient 1\Session 1\male.ASF
:FULLY-SPECIFIED
:DEGREES
180
root -0.786999 17.8147 -31.1979 4.45442 4.71084 -4.39871
lowerback 8.07326 3.26378 7.98496
upperback -1.27492 5.17816 0.363998
thorax -5.20257 2.31892 -4.7034
lowerneck -19.3493 -2.02975 17.2915
upperneck 34.3524 -4.81169 -12.5534
head 14.1677 -1.56455 -9.1374
rclavicle -3.82412e-014 -7.35503e-015
rhumerus -38.7844 -20.9724 -75.5936
rradius 22.5094
rwrist 2.54267
rhand -16.488 -1.76541
rfingers 7.12502
rthumb 9.72937 -31.5207
lclavicle -3.82412e-014 -7.35503e-015
lhumerus -33.897 -10.8431 86.462
lradius 32.8416
lwrist 10.0788
lhand -14.8174 -2.78492
lfingers 7.12502
lthumb 11.3409 26.8884
rfemur -6.83295 0.1432 26.2118
rtibia 26.4503
rfoot -16.7141 -27.2245
rtoes 1.96149
lfemur -32.4816 2.65612 -7.62492
ltibia 51.7001
lfoot -7.61052 8.46335
ltoes -18.0614
181
root -0.785739 17.8164 -31.1533 4.58928 4.75015 -4.34722
lowerback 8.07964 3.17351 7.93783
upperback -1.25405 5.05468 0.401326
thorax -5.20792 2.26021 -4.62562
lowerneck -19.5006 -1.92534 17.1766
upperneck 34.1456 -4.6423 -12.5671
head 14.1467 -1.52243 -9.08984
rclavicle -4.19187e-014 -5.1684e-015
rhumerus -38.4066 -20.764 -75.7208
rradius 22.4764
rwrist 2.65014
rhand -16.5477 -1.75576
rfingers 7.12502
rthumb 9.67172 -31.5137
lclavicle -4.19187e-014 -5.1684e-015
lhumerus -33.9779 -10.4596 86.4495
lradius 32.6245
lwrist 9.83406
lhand -14.5946 -2.66089
lfingers 7.12502
lthumb 11.5557 27.0005
rfemur -6.70247 0.201273 26.1787
rtibia 26.244
rfoot -16.7871 -27.3667
rtoes 1.97919
lfemur -32.6966 2.59258 -7.83596
ltibia 50.4833
lfoot -8.01565 8.76421
ltoes -18.0628
182
root -0.784022 17.818 -31.1079 4.74011 4.81984 -4.28584
lowerback 8.05417 3.06294 7.83699
upperback -1.21537 4.89656 0.470612
thorax -5.18748 2.18823 -4.47791
lowerneck -19.679 -1.77226 17.1261
upperneck 33.9155 -4.4062 -12.6503
head 14.1304 -1.45376 -9.07501
rclavicle -7.37988e-014 -4.41302e-014
rhumerus -37.9738 -20.4335 -75.88
rradius 22.4831
rwrist 2.64501
rhand -16.6208 -1.75967
rfingers 7.12502
rthumb 9.60124 -31.5209
lclavicle -7.37988e-014 -4.41302e-014
lhumerus -34.0193 -9.98427 86.4427
lradius 32.3859
lwrist 9.5432
lhand -14.3761 -2.57443
lfingers 7.12502
lthumb 11.7664 27.0751
rfemur -6.57656 0.259376 26.1399
rtibia 26.0181
rfoot -16.8473 -27.5462
rtoes 1.98511
lfemur -32.9143 2.48085 -8.05317
ltibia 49.1749
lfoot -8.36993 9.13891
ltoes -18.0768
183
root -0.780725 17.8206 -31.0592 4.88214 4.88618 -4.2029
lowerback 8.0151 2.92355 7.71051
upperback -1.17587 4.69752 0.56233
thorax -5.16659 2.09713 -4.28739
lowerneck -19.7892 -1.57335 17.0794
upperneck 33.6175 -4.07832 -12.77
head 14.0862 -1.35316 -9.05383
rclavicle 6.38596e-015 -1.76918e-014
rhumerus -37.5347 -19.9591 -76.0523
rradius 22.5035
rwrist 2.57305
rhand -16.6922 -1.75272
rfingers 7.12502
rthumb 9.53236 -31.5171
lclavicle 6.38596e-015 -1.76918e-014
lhumerus -34.0999 -9.38193 86.4315
lradius 32.1493
lwrist 9.22985
lhand -14.1689 -2.51546
lfingers 7.12502
lthumb 11.9663 27.1225
rfemur -6.4129 0.307472 26.072
rtibia 25.7643
rfoot -16.9013 -27.7215
rtoes 1.97456
lfemur -33.081 2.33422 -8.29063
ltibia 47.7823
lfoot -8.6777 9.57258
ltoes -18.0513
184
root -0.776306 17.8234 -31.0084 5.02902 4.93562 -4.11109
lowerback 7.99287 2.89897 7.64779
upperback -1.12142 4.65221 0.53979
thorax -5.10467 2.08056 -4.26785
lowerneck -20.1135 -1.44268 17.2113
upperneck 33.3944 -3.96559 -12.8764
head 14.0765 -1.31891 -9.1044
rclavicle -2.80535e-014 -3.69739e-014
rhumerus -37.1789 -19.873 -76.2099
rradius 22.5997
rwrist 2.45433
rhand -16.769 -1.76114
rfingers 7.12502
rthumb 9.45825 -31.5289
lclavicle -2.80535e-014 -3.69739e-014
lhumerus -34.0513 -9.23719 86.4176
lradius 31.8709
lwrist 8.93485
lhand -13.991 -2.49489
lfingers 7.12502
lthumb 12.1378 27.133
rfemur -6.23828 0.35984 25.9908
rtibia 25.4898
rfoot -16.9296 -27.8949
rtoes 1.94119
lfemur -33.2228 2.18357 -8.53367
ltibia 46.3253
lfoot -8.9145 10.0439
ltoes -18.0304
185
root -0.770942 17.8264 -30.955 5.17351 4.96548 -4.01362
lowerback 8.05092 3.11265 7.75898
upperback -1.09206 4.93635 0.26093
thorax -5.03692 2.2177 -4.65247
lowerneck -20.7886 -1.48639 17.6912
upperneck 33.3543 -4.33575 -12.9221
head 14.1203 -1.43523 -9.28831
rclavicle 2.62147e-014 9.93923e-016
rhumerus -37.1042 -20.6898 -76.2809
rradius 22.7946
rwrist 2.3491
rhand -16.8449 -1.78455
rfingers 7.12502
rthumb 9.38497 -31.5556
lclavicle 2.62147e-014 9.93923e-016
lhumerus -33.8573 -10.1136 86.4039
lradius 31.55
lwrist 8.78387
lhand -13.8181 -2.47144
lfingers 7.12502
lthumb 12.3045 27.1465
rfemur -6.04071 0.427425 25.9013
rtibia 25.1893
rfoot -16.9306 -28.0709
rtoes 1.9029
lfemur -33.3288 2.02974 -8.7765
ltibia 44.8215
lfoot -9.11721 10.5355
ltoes -17.9952
186
root -0.765201 17.829 -30.9007 5.32229 4.98121 -3.92954
lowerback 8.11367 3.28301 7.85255
upperback -1.0698 5.16442 0.0249413
thorax -4.98866 2.3275 -4.97751
lowerneck -21.3805 -1.50765 18.0706
upperneck 33.282 -4.63054 -12.9503
head 14.1481 -1.53015 -9.42958
rclavicle -8.5378e-014 5.56597e-015
rhumerus -36.9926 -21.3237 -76.3803
rradius 22.9881
rwrist 2.2351
rhand -16.8829 -1.75932
rfingers 7.12502
rthumb 9.34838 -31.532
lclavicle -8.5378e-014 5.56597e-015
lhumerus -33.6902 -10.7944 86.3649
lradius 31.2267
lwrist 8.59776
lhand -13.6434 -2.46981
lfingers 7.12502
lthumb 12.473 27.138
rfemur -5.84207 0.515736 25.8277
rtibia 24.8767
rfoot -16.9054 -28.258
rtoes 1.86386
lfemur -33.4298 1.88713 -8.99615
ltibia 43.296
lfoot -9.27977 11.0063
ltoes -17.9783
187
root -0.758607 17.8313 -30.8445 5.47362 4.95788 -3.86709
lowerback 8.17052 3.46429 7.93614
upperback -1.08799 5.40923 -0.184853
thorax -4.97824 2.44347 -5.27271
lowerneck -21.8241 -1.54775 18.4388
upperneck 33.1644 -4.91328 -13.0041
head 14.1217 -1.62789 -9.56391
rclavicle -2.15184e-014 -1.89839e-014
rhumerus -36.9697 -21.8518 -76.4534
rradius 23.2134
rwrist 2.06206
rhand -16.92 -1.79474
rfingers 7.12502
rthumb 9.31257 -31.5691
lclavicle -2.15184e-014 -1.89839e-014
lhumerus -33.6221 -11.4249 86.3476
lradius 30.9175
lwrist 8.39943
lhand -13.4816 -2.48557
lfingers 7.12502
lthumb 12.6289 27.1127
rfemur -5.64113 0.62681 25.7717
rtibia 24.5553
rfoot -16.8571 -28.4345
rtoes 1.8043
lfemur -33.519 1.76854 -9.18356
ltibia 41.7674
lfoot -9.41916 11.4557
ltoes -17.9844
188
root -0.751482 17.8334 -30.7876 5.64603 4.94564 -3.799
lowerback 8.17473 3.55401 7.93051
upperback -1.14946 5.52695 -0.276526
thorax -5.02013 2.4969 -5.38043
lowerneck -21.9494 -1.5649 18.6094
upperneck 32.937 -5.01172 -13.0707
head 14.0183 -1.67839 -9.6147
rclavicle 4.46023e-014 -5.76476e-015
rhumerus -36.9468 -21.9256 -76.5153
rradius 23.4324
rwrist 1.81118
rhand -16.9233 -1.77982
rfingers 7.12502
rthumb 9.30934 -31.5543
lclavicle 4.46023e-014 -5.76476e-015
lhumerus -33.7116 -11.6166 86.3666
lradius 30.6229
lwrist 8.13707
lhand -13.3079 -2.49582
lfingers 7.12502
lthumb 12.7964 27.092
rfemur -5.46269 0.721658 25.7083
rtibia 24.2366
rfoot -16.8074 -28.6106
rtoes 1.75211
lfemur -33.6393 1.63858 -9.36703
ltibia 40.2551
lfoot -9.50552 11.8563
ltoes -17.9761
